# xmcd
#
# Track frame offsets: 
#        150
#        17482
#        35872
#        51300
#        65580
#        81572
#        102197
#        118040
#        135450
#        152355
#
# Disc length: 2265 seconds
#
# Revision: 2
# Processed by: cddbd v1.5.1PL0 Copyright (c) Steve Scherf et al.
# Submitted via: ExactAudioCopy v0.95a4
#
DISCID=8308d70a
DTITLE=Paul Overstreet - The Best Of
DYEAR=1994
DGENRE=Christian Country
TTITLE0=Sowin' Love
TTITLE1=All The Fun
TTITLE2=Seein' My Father In Me
TTITLE3=Richest Man On Earth
TTITLE4=Daddy's Come Around
TTITLE5=Heroes
TTITLE6=Ball And Chain
TTITLE7=If I Could Bottle This Up
TTITLE8=Billy Can't Read
TTITLE9=Take Another Run
EXTD=
EXTT0=
EXTT1=
EXTT2=
EXTT3=
EXTT4=
EXTT5=
EXTT6=
EXTT7=
EXTT8=
EXTT9=
PLAYORDER=
